<?xml version="1.0" encoding="UTF-8" standalone="no"?>
<!DOCTYPE svg PUBLIC "-//W3C//DTD SVG 20010904//EN"
              "http://www.w3.org/TR/2001/REC-SVG-20010904/DTD/svg10.dtd">

<svg xmlns="http://www.w3.org/2000/svg"
     width="240px" height="12px"
     viewBox="0 0 1683 855">
  <path id="Zaznaczenie"
        fill="none" stroke="black" stroke-width="1"
        d="M 896.00,45.28
           C 889.60,47.24 884.80,49.44 880.80,55.01
             869.61,70.60 878.34,95.02 900.00,95.96
             904.43,96.15 907.88,95.60 912.00,93.91
             935.53,84.25 930.59,46.24 903.00,45.28
             900.25,44.92 898.69,45.09 896.00,45.28 Z
           M 443.00,659.92
           C 443.00,659.92 453.80,639.00 453.80,639.00
             459.02,631.52 463.73,629.06 468.13,619.00
             468.13,619.00 471.09,611.00 471.09,611.00
             473.93,604.06 477.90,597.44 479.48,590.00
             479.48,590.00 480.17,579.00 480.17,579.00
             480.17,579.00 482.68,565.00 482.68,565.00
             482.68,565.00 483.38,558.00 483.38,558.00
             485.69,546.45 491.97,538.45 492.00,522.00
             492.05,491.01 496.25,471.64 485.05,441.00
             483.19,435.91 482.58,433.03 480.00,428.00
             486.80,428.00 493.27,428.12 500.00,429.32
             507.18,430.60 505.81,431.96 515.00,432.00
             515.00,432.00 531.00,432.00 531.00,432.00
             546.09,431.98 547.74,430.28 561.00,425.89
             567.97,423.58 571.03,423.76 578.00,419.54
             585.82,414.80 591.14,409.12 598.00,403.46
             608.41,394.88 620.86,382.12 627.01,370.00
             629.27,365.53 633.05,353.06 633.71,348.00
             633.71,348.00 634.39,339.00 634.39,339.00
             635.37,334.36 638.64,330.40 638.96,323.00
             639.59,308.49 629.82,296.68 615.00,296.04
             602.89,295.51 596.56,300.59 589.86,310.00
             586.75,314.37 584.66,317.65 583.52,323.00
             582.88,325.96 583.01,328.99 583.00,332.00
             582.97,348.00 573.57,355.88 562.00,365.46
             562.00,365.46 553.00,373.26 553.00,373.26
             550.10,375.07 546.31,375.26 543.00,376.36
             536.13,378.65 533.15,381.46 525.00,380.90
             525.00,380.90 513.00,378.18 513.00,378.18
             513.00,378.18 493.00,376.62 493.00,376.62
             493.00,376.62 472.00,368.05 472.00,368.05
             472.00,368.05 463.00,361.63 463.00,361.63
             463.00,361.63 454.60,355.39 454.60,355.39
             452.70,353.15 452.86,348.18 452.10,345.00
             452.10,345.00 450.16,338.00 450.16,338.00
             450.16,338.00 450.16,312.00 450.16,312.00
             450.04,303.08 454.23,283.61 456.98,275.00
             456.98,275.00 461.24,264.00 461.24,264.00
             461.24,264.00 463.29,250.00 463.29,250.00
             463.29,250.00 465.96,242.00 465.96,242.00
             469.40,230.71 472.72,218.67 474.56,207.00
             474.56,207.00 475.18,198.00 475.18,198.00
             475.18,198.00 476.84,191.00 476.84,191.00
             476.84,191.00 476.84,179.00 476.84,179.00
             477.02,165.58 479.96,169.49 480.00,156.00
             480.00,156.00 516.00,156.00 516.00,156.00
             524.96,156.01 524.90,157.12 532.00,157.92
             532.00,157.92 549.00,157.92 549.00,157.92
             560.85,158.02 558.58,159.92 566.00,160.82
             566.00,160.82 588.00,162.32 588.00,162.32
             597.92,163.93 607.88,166.88 618.00,167.00
             618.00,167.00 655.00,167.00 655.00,167.00
             662.16,166.99 668.14,166.13 673.96,161.47
             685.64,152.11 686.03,132.27 674.91,122.33
             669.03,117.07 662.55,116.01 655.00,116.00
             655.00,116.00 627.00,116.00 627.00,116.00
             622.57,115.99 610.34,114.41 606.00,113.48
             606.00,113.48 597.00,111.18 597.00,111.18
             597.00,111.18 576.00,109.82 576.00,109.82
             576.00,109.82 564.00,107.09 564.00,107.09
             564.00,107.09 545.00,107.09 545.00,107.09
             545.00,107.09 525.00,105.03 525.00,105.03
             525.00,105.03 473.00,105.03 473.00,105.03
             473.00,105.03 464.42,105.03 464.42,105.03
             455.87,104.44 452.95,102.42 444.00,106.52
             428.68,113.53 430.18,127.17 430.00,141.00
             429.86,151.10 426.14,151.07 425.91,162.00
             425.91,162.00 425.91,180.00 425.91,180.00
             425.91,180.00 424.18,188.00 424.18,188.00
             424.18,188.00 423.68,197.00 423.68,197.00
             423.68,197.00 421.52,205.00 421.52,205.00
             421.52,205.00 420.24,214.00 420.24,214.00
             420.24,214.00 413.04,235.00 413.04,235.00
             413.04,235.00 411.51,245.00 411.51,245.00
             411.51,245.00 407.43,256.00 407.43,256.00
             407.43,256.00 405.48,267.00 405.48,267.00
             402.58,280.40 399.02,292.01 399.00,306.00
             399.00,306.00 399.00,341.00 399.00,341.00
             399.02,352.74 400.65,349.85 401.83,358.00
             402.94,365.66 404.83,377.78 407.04,385.00
             407.04,385.00 410.78,395.00 410.78,395.00
             410.78,395.00 421.52,425.00 421.52,425.00
             421.52,425.00 428.93,438.00 428.93,438.00
             428.93,438.00 431.71,448.00 431.71,448.00
             431.71,448.00 437.10,460.00 437.10,460.00
             439.19,466.63 441.31,480.86 441.82,488.00
             441.82,488.00 441.00,502.00 441.00,502.00
             440.98,513.44 441.31,517.58 438.24,529.00
             438.24,529.00 432.52,545.00 432.52,545.00
             432.52,545.00 431.82,554.00 431.82,554.00
             431.82,554.00 427.96,577.00 427.96,577.00
             427.96,577.00 419.16,598.00 419.16,598.00
             419.16,598.00 413.53,605.00 413.53,605.00
             413.53,605.00 408.32,613.00 408.32,613.00
             408.32,613.00 399.46,630.00 399.46,630.00
             393.94,638.49 387.10,646.76 379.72,653.68
             379.72,653.68 372.04,660.09 372.04,660.09
             365.28,666.61 357.46,677.32 357.04,687.00
             356.34,702.98 367.19,713.81 383.00,713.91
             383.00,713.91 405.00,713.91 405.00,713.91
             412.42,712.92 410.15,711.02 422.00,711.00
             422.00,711.00 458.00,711.00 458.00,711.00
             458.00,711.00 485.00,708.00 485.00,708.00
             485.00,708.00 584.00,708.00 584.00,708.00
             595.85,708.02 593.58,709.92 601.00,710.82
             601.00,710.82 619.00,711.51 619.00,711.51
             627.27,713.18 635.50,715.90 644.00,716.00
             661.39,716.20 674.80,708.20 673.96,689.00
             673.66,682.01 670.44,674.96 664.96,670.53
             664.96,670.53 654.46,663.61 654.46,663.61
             654.46,663.61 647.54,655.00 647.54,655.00
             639.21,644.89 629.04,634.43 615.00,635.04
             608.06,635.34 600.91,638.57 596.53,644.04
             590.26,651.87 594.24,656.81 584.00,657.00
             584.00,657.00 477.00,657.00 477.00,657.00
             465.97,657.02 465.59,658.97 457.00,659.92
             457.00,659.92 443.00,659.92 443.00,659.92 Z
           M 287.00,167.00
           C 287.00,167.00 284.11,180.00 284.11,180.00
             284.11,180.00 280.21,194.00 280.21,194.00
             280.21,194.00 278.48,205.00 278.48,205.00
             278.48,205.00 276.52,212.00 276.52,212.00
             276.52,212.00 274.00,235.00 274.00,235.00
             274.00,235.00 274.00,255.00 274.00,255.00
             274.01,263.67 275.34,278.66 277.48,287.00
             277.48,287.00 281.50,301.00 281.50,301.00
             281.50,301.00 287.67,330.00 287.67,330.00
             287.67,330.00 293.43,346.00 293.43,346.00
             293.43,346.00 298.10,357.00 298.10,357.00
             298.10,357.00 300.16,370.00 300.16,370.00
             300.16,370.00 305.04,388.00 305.04,388.00
             305.04,388.00 310.11,404.00 310.11,404.00
             310.11,404.00 314.71,427.00 314.71,427.00
             314.71,427.00 315.46,435.00 315.46,435.00
             315.46,435.00 323.54,474.00 323.54,474.00
             323.54,474.00 325.01,486.00 325.01,486.00
             327.04,495.36 330.79,499.74 332.39,506.00
             332.39,506.00 335.01,524.00 335.01,524.00
             335.01,524.00 343.00,564.00 343.00,564.00
             343.00,564.00 343.00,576.00 343.00,576.00
             342.80,592.79 333.45,591.58 325.51,601.04
             325.51,601.04 307.41,628.00 307.41,628.00
             300.87,637.02 296.41,639.17 292.78,644.01
             285.71,653.48 277.07,665.78 264.00,666.00
             261.30,666.04 255.38,666.17 253.00,665.49
             253.00,665.49 243.00,660.71 243.00,660.71
             243.00,660.71 234.00,658.02 234.00,658.02
             226.16,654.89 214.19,647.92 208.44,641.83
             202.79,635.84 199.17,628.88 194.89,622.00
             194.89,622.00 186.13,610.00 186.13,610.00
             186.13,610.00 177.70,599.00 177.70,599.00
             177.70,599.00 162.38,581.00 162.38,581.00
             157.30,573.82 159.97,569.93 158.48,563.00
             156.00,551.38 146.90,543.56 135.00,543.04
             131.31,542.88 128.52,543.19 125.00,544.36
             108.00,550.03 106.28,567.60 108.29,583.00
             108.29,583.00 110.72,594.00 110.72,594.00
             111.86,599.54 112.35,604.84 114.99,610.00
             118.78,617.38 123.25,618.61 128.83,623.51
             131.42,625.78 139.88,635.12 142.11,638.00
             152.42,651.31 159.61,666.63 171.28,678.91
             179.12,687.15 200.33,700.47 211.00,705.13
             211.00,705.13 222.00,708.76 222.00,708.76
             231.34,712.31 236.34,716.87 247.00,717.00
             257.11,717.12 281.29,717.54 290.00,714.64
             295.92,712.67 297.19,710.85 302.00,707.59
             302.00,707.59 310.00,702.47 310.00,702.47
             317.40,696.77 324.58,688.19 330.66,681.09
             330.66,681.09 347.47,662.96 347.47,662.96
             347.47,662.96 353.30,654.00 353.30,654.00
             353.30,654.00 364.52,638.28 364.52,638.28
             364.52,638.28 374.84,627.83 374.84,627.83
             379.53,622.95 388.00,611.26 390.55,605.00
             393.12,598.68 393.99,587.91 394.00,581.00
             394.00,581.00 394.00,555.00 394.00,555.00
             393.95,545.23 390.52,536.40 388.52,527.00
             388.52,527.00 387.24,518.00 387.24,518.00
             387.24,518.00 384.52,509.00 384.52,509.00
             384.52,509.00 383.24,494.00 383.24,494.00
             383.24,494.00 375.53,474.00 375.53,474.00
             375.53,474.00 372.68,454.00 372.68,454.00
             372.68,454.00 370.15,445.00 370.15,445.00
             370.15,445.00 367.40,432.00 367.40,432.00
             367.40,432.00 365.56,419.00 365.56,419.00
             365.56,419.00 360.20,392.00 360.20,392.00
             360.20,392.00 351.51,361.00 351.51,361.00
             351.51,361.00 350.24,345.00 350.24,345.00
             347.46,334.15 342.30,329.11 340.63,324.00
             340.63,324.00 338.64,316.00 338.64,316.00
             337.09,311.36 335.83,310.33 334.62,305.00
             334.62,305.00 332.48,290.00 332.48,290.00
             332.48,290.00 327.52,274.00 327.52,274.00
             327.52,274.00 326.83,263.00 326.83,263.00
             326.83,263.00 325.15,254.00 325.15,254.00
             325.15,254.00 325.15,240.00 325.15,240.00
             325.13,228.84 328.62,224.35 329.68,218.00
             329.68,218.00 330.32,206.00 330.32,206.00
             330.32,206.00 332.96,197.00 332.96,197.00
             332.96,197.00 335.20,187.00 335.20,187.00
             335.20,187.00 338.51,172.00 338.51,172.00
             339.98,168.65 343.92,165.07 346.33,162.00
             351.15,155.87 355.61,147.96 355.96,140.00
             356.78,121.09 341.34,111.03 324.00,111.00
             324.00,111.00 308.00,111.00 308.00,111.00
             298.86,111.04 300.33,112.29 293.00,113.69
             284.75,115.27 272.31,116.99 264.00,117.00
             264.00,117.00 192.00,117.00 192.00,117.00
             192.00,117.00 167.00,114.00 167.00,114.00
             167.00,114.00 114.00,114.00 114.00,114.00
             114.00,114.00 98.00,113.00 98.00,113.00
             98.00,113.00 81.00,113.00 81.00,113.00
             73.24,112.90 72.96,111.30 67.00,111.04
             52.49,110.41 40.68,120.18 40.04,135.00
             39.22,153.91 54.66,163.97 72.00,164.00
             72.00,164.00 92.00,164.00 92.00,164.00
             92.00,164.00 107.00,165.00 107.00,165.00
             107.00,165.00 158.00,165.00 158.00,165.00
             171.50,165.02 167.50,167.98 181.00,168.00
             181.00,168.00 271.00,168.00 271.00,168.00
             271.00,168.00 287.00,167.00 287.00,167.00 Z
           M 1298.00,120.52
           C 1294.69,121.41 1291.93,122.25 1289.00,124.13
             1277.23,131.70 1276.31,145.77 1280.04,158.00
             1280.04,158.00 1284.37,169.00 1284.37,169.00
             1284.37,169.00 1285.32,178.00 1285.32,178.00
             1286.35,184.12 1287.89,183.57 1288.00,192.00
             1288.00,192.00 1288.00,206.00 1288.00,206.00
             1287.98,216.96 1286.16,215.31 1283.43,225.00
             1283.43,225.00 1281.10,235.00 1281.10,235.00
             1281.10,235.00 1276.76,247.00 1276.76,247.00
             1276.76,247.00 1275.68,257.00 1275.68,257.00
             1274.60,263.61 1273.10,265.06 1273.00,273.00
             1272.95,277.20 1273.31,285.30 1272.47,289.00
             1270.51,297.68 1267.02,299.00 1267.00,314.00
             1267.00,314.00 1267.00,369.00 1267.00,369.00
             1267.02,379.82 1268.37,377.14 1269.68,385.00
             1269.68,385.00 1270.44,396.00 1270.44,396.00
             1270.44,396.00 1274.91,416.00 1274.91,416.00
             1274.91,416.00 1274.91,433.00 1274.91,433.00
             1275.05,443.74 1280.71,455.75 1283.97,466.00
             1283.97,466.00 1291.21,492.00 1291.21,492.00
             1291.21,492.00 1301.51,513.00 1301.51,513.00
             1301.51,513.00 1306.82,522.00 1306.82,522.00
             1306.82,522.00 1311.53,534.00 1311.53,534.00
             1311.53,534.00 1324.54,551.00 1324.54,551.00
             1324.54,551.00 1331.80,565.00 1331.80,565.00
             1331.80,565.00 1339.10,574.00 1339.10,574.00
             1339.10,574.00 1346.53,585.00 1346.53,585.00
             1346.53,585.00 1353.83,593.00 1353.83,593.00
             1366.36,606.81 1370.91,612.43 1387.00,622.79
             1387.00,622.79 1395.00,628.47 1395.00,628.47
             1400.56,631.64 1418.50,636.70 1425.00,636.96
             1431.53,637.22 1444.32,634.65 1450.00,631.47
             1450.00,631.47 1463.00,622.22 1463.00,622.22
             1463.00,622.22 1476.00,617.91 1476.00,617.91
             1481.55,615.65 1499.50,606.10 1503.96,602.47
             1507.55,599.56 1508.54,597.32 1511.32,594.00
             1511.32,594.00 1521.33,583.00 1521.33,583.00
             1521.33,583.00 1530.31,570.00 1530.31,570.00
             1538.23,560.11 1541.99,552.83 1548.04,542.00
             1552.04,534.84 1553.37,534.50 1556.58,526.00
             1556.58,526.00 1564.23,499.00 1564.23,499.00
             1564.23,499.00 1576.76,465.00 1576.76,465.00
             1578.84,456.18 1577.43,454.43 1578.21,449.00
             1578.21,449.00 1581.48,438.00 1581.48,438.00
             1581.48,438.00 1582.39,429.00 1582.39,429.00
             1582.39,429.00 1587.29,418.00 1587.29,418.00
             1587.29,418.00 1593.76,395.00 1593.76,395.00
             1593.76,395.00 1599.94,365.00 1599.94,365.00
             1599.94,365.00 1599.94,355.00 1599.94,355.00
             1599.94,355.00 1601.71,346.00 1601.71,346.00
             1601.71,346.00 1602.29,339.00 1602.29,339.00
             1604.04,325.72 1607.98,312.49 1608.00,299.00
             1608.00,299.00 1608.00,269.00 1608.00,269.00
             1607.98,255.50 1605.02,259.50 1605.00,246.00
             1604.99,236.44 1604.78,230.35 1601.96,221.00
             1601.96,221.00 1596.80,209.00 1596.80,209.00
             1596.80,209.00 1595.24,200.00 1595.24,200.00
             1595.24,200.00 1591.69,190.00 1591.69,190.00
             1591.69,190.00 1588.64,180.00 1588.64,180.00
             1588.64,180.00 1584.40,170.00 1584.40,170.00
             1579.93,153.33 1578.09,133.00 1556.00,132.04
             1541.49,131.41 1529.69,141.18 1529.04,156.00
             1528.18,175.69 1538.46,192.80 1544.10,211.00
             1544.10,211.00 1549.72,232.00 1549.72,232.00
             1551.95,239.33 1553.90,240.88 1554.00,249.00
             1554.00,249.00 1554.00,260.00 1554.00,260.00
             1554.02,271.85 1555.92,269.58 1556.91,277.00
             1556.91,277.00 1556.91,294.00 1556.91,294.00
             1556.93,299.81 1556.26,300.75 1555.44,306.00
             1555.44,306.00 1554.56,315.00 1554.56,315.00
             1554.56,315.00 1551.29,332.00 1551.29,332.00
             1551.29,332.00 1550.70,339.00 1550.70,339.00
             1550.70,339.00 1549.00,347.00 1549.00,347.00
             1549.00,347.00 1549.00,357.00 1549.00,357.00
             1549.00,357.00 1544.25,380.00 1544.25,380.00
             1544.25,380.00 1538.18,399.00 1538.18,399.00
             1536.65,402.82 1534.47,404.24 1532.48,412.00
             1532.48,412.00 1528.18,432.00 1528.18,432.00
             1528.18,432.00 1526.61,451.00 1526.61,451.00
             1524.95,458.82 1519.85,465.56 1517.36,473.00
             1517.36,473.00 1512.51,490.00 1512.51,490.00
             1511.37,495.08 1510.80,500.07 1508.88,505.00
             1508.88,505.00 1496.27,528.00 1496.27,528.00
             1496.27,528.00 1478.90,551.91 1478.90,551.91
             1478.90,551.91 1471.09,558.32 1471.09,558.32
             1468.31,560.85 1466.77,563.84 1463.82,565.79
             1458.38,569.37 1450.19,569.93 1444.00,572.99
             1444.00,572.99 1432.00,579.76 1432.00,579.76
             1430.06,581.03 1426.92,583.79 1424.58,583.74
             1422.30,583.70 1418.89,581.00 1417.00,579.74
             1409.43,574.70 1407.29,574.44 1401.26,567.00
             1401.26,567.00 1389.17,554.00 1389.17,554.00
             1389.17,554.00 1376.44,537.00 1376.44,537.00
             1376.44,537.00 1366.47,519.00 1366.47,519.00
             1366.47,519.00 1358.56,509.00 1358.56,509.00
             1358.56,509.00 1353.48,498.00 1353.48,498.00
             1348.85,489.46 1343.73,481.11 1340.18,472.00
             1338.22,466.97 1339.76,465.19 1336.91,458.00
             1332.46,446.78 1326.15,435.37 1326.00,423.00
             1326.00,423.00 1326.00,410.00 1326.00,410.00
             1325.90,401.61 1323.66,399.61 1322.01,392.00
             1320.27,383.94 1321.53,382.27 1320.71,376.00
             1319.58,367.33 1318.02,368.81 1318.00,358.00
             1318.00,358.00 1318.00,322.00 1318.00,322.00
             1318.02,310.32 1320.38,312.13 1322.76,302.00
             1324.45,294.83 1323.97,290.19 1324.00,283.00
             1324.05,273.30 1325.49,275.04 1326.68,268.00
             1326.68,268.00 1327.49,261.00 1327.49,261.00
             1327.49,261.00 1331.25,251.00 1331.25,251.00
             1331.25,251.00 1333.63,239.00 1333.63,239.00
             1336.26,229.83 1338.87,228.09 1339.00,217.00
             1339.00,217.00 1339.00,183.00 1339.00,183.00
             1338.90,175.06 1337.40,173.61 1336.32,167.00
             1336.32,167.00 1335.48,158.00 1335.48,158.00
             1334.52,153.51 1331.65,147.35 1329.86,143.00
             1328.04,138.59 1327.02,133.94 1324.20,130.01
             1318.10,121.50 1307.91,118.95 1298.00,120.52 Z
           M 882.00,180.00
           C 882.00,180.00 866.48,204.00 866.48,204.00
             866.48,204.00 845.12,232.00 845.12,232.00
             845.12,232.00 839.37,245.00 839.37,245.00
             839.37,245.00 827.71,269.00 827.71,269.00
             825.59,274.80 826.40,276.34 825.37,280.00
             825.37,280.00 822.36,288.00 822.36,288.00
             822.36,288.00 820.41,296.00 820.41,296.00
             820.41,296.00 814.01,317.00 814.01,317.00
             814.01,317.00 811.92,327.00 811.92,327.00
             811.92,327.00 811.92,336.00 811.92,336.00
             810.66,342.12 809.11,341.57 809.00,350.00
             809.00,350.00 809.00,356.00 809.00,356.00
             808.79,373.08 793.04,391.54 793.00,414.00
             793.00,414.00 793.00,446.00 793.00,446.00
             792.93,459.46 787.03,455.85 787.00,473.00
             787.00,473.00 787.00,563.00 787.00,563.00
             787.03,580.68 795.07,592.28 801.23,608.00
             801.23,608.00 805.09,622.00 805.09,622.00
             807.45,627.76 809.31,628.12 812.00,636.00
             812.00,636.00 816.09,653.00 816.09,653.00
             821.53,666.25 835.01,678.61 850.00,677.96
             864.82,677.32 874.59,665.51 873.96,651.00
             873.49,640.18 865.50,631.80 865.04,624.00
             864.86,620.84 864.67,614.66 869.04,614.25
             871.48,614.02 873.10,615.95 873.69,618.09
             874.68,621.71 872.50,628.99 878.80,638.00
             885.68,647.85 896.28,654.14 906.00,660.75
             912.46,665.13 919.88,671.23 927.00,674.48
             932.40,676.95 941.13,679.94 947.00,680.71
             947.00,680.71 955.00,681.32 955.00,681.32
             963.24,682.67 960.84,683.98 972.00,684.00
             989.15,684.03 1012.82,685.16 1029.00,680.57
             1029.00,680.57 1060.00,666.45 1060.00,666.45
             1080.39,658.22 1084.44,659.03 1102.00,643.17
             1106.33,639.26 1109.67,636.96 1113.21,632.00
             1119.16,623.69 1119.06,619.34 1120.29,610.00
             1120.29,610.00 1122.08,601.00 1122.08,601.00
             1122.08,601.00 1122.08,592.00 1122.08,592.00
             1122.08,592.00 1127.48,575.00 1127.48,575.00
             1127.48,575.00 1129.00,554.00 1129.00,554.00
             1129.09,545.67 1129.96,535.62 1126.48,528.00
             1122.31,518.84 1112.82,510.29 1103.00,507.76
             1103.00,507.76 1086.00,505.68 1086.00,505.68
             1086.00,505.68 1078.00,503.52 1078.00,503.52
             1075.37,502.95 1064.72,501.92 1062.00,502.04
             1040.90,502.96 1031.95,526.15 1042.13,542.00
             1047.88,550.94 1055.73,551.79 1065.00,554.43
             1070.50,555.99 1070.97,556.71 1077.00,557.00
             1077.00,557.00 1070.29,588.00 1070.29,588.00
             1069.57,593.53 1071.20,598.33 1067.69,603.00
             1060.11,613.05 1048.03,615.75 1037.00,620.20
             1037.00,620.20 1013.00,631.35 1013.00,631.35
             1007.67,632.96 980.75,633.63 975.00,632.68
             975.00,632.68 966.00,630.32 966.00,630.32
             957.13,628.85 954.74,631.87 944.06,623.91
             938.80,619.99 938.40,609.35 934.24,603.00
             930.80,597.75 929.30,596.89 925.29,592.72
             925.29,592.72 918.83,585.17 918.83,585.17
             918.83,585.17 901.00,571.42 901.00,571.42
             892.55,565.32 887.91,561.14 877.00,561.00
             877.00,561.00 865.00,561.00 865.00,561.00
             859.27,561.01 856.40,561.12 851.00,563.51
             848.62,564.57 844.74,567.40 842.19,566.59
             838.46,565.39 838.06,560.21 838.00,557.00
             838.00,557.00 838.00,487.00 838.00,487.00
             838.02,472.39 843.92,471.17 844.00,455.00
             844.00,455.00 844.00,423.00 844.00,423.00
             844.02,408.93 849.92,401.56 854.31,389.00
             856.61,382.41 860.15,369.80 860.87,363.00
             860.87,363.00 860.87,353.42 860.87,353.42
             860.87,353.42 863.39,342.00 863.39,342.00
             863.39,342.00 864.52,328.00 864.52,328.00
             864.52,328.00 870.96,309.00 870.96,309.00
             870.96,309.00 878.76,282.00 878.76,282.00
             878.76,282.00 886.02,268.00 886.02,268.00
             891.48,256.72 890.28,257.61 898.66,247.00
             898.66,247.00 910.56,232.00 910.56,232.00
             914.57,226.26 915.49,222.71 921.17,217.66
             921.17,217.66 935.99,207.20 935.99,207.20
             935.99,207.20 942.28,201.80 942.28,201.80
             942.28,201.80 949.00,197.47 949.00,197.47
             954.64,193.15 961.15,186.23 966.17,181.09
             973.32,173.75 978.46,170.47 978.96,159.00
             979.72,141.63 966.50,131.20 950.00,131.00
             950.00,131.00 903.00,131.00 903.00,131.00
             888.17,130.98 893.82,126.80 876.00,127.00
             876.00,127.00 861.00,128.00 861.00,128.00
             861.00,128.00 799.00,128.00 799.00,128.00
             791.05,128.01 784.08,129.29 778.18,135.18
             764.30,149.06 770.28,178.67 797.00,179.00
             817.69,179.25 864.74,177.72 882.00,180.00 Z" />
</svg>
