<?xml version="1.0" encoding="UTF-8" standalone="no"?>
<!DOCTYPE svg PUBLIC "-//W3C//DTD SVG 20010904//EN"
              "http://www.w3.org/TR/2001/REC-SVG-20010904/DTD/svg10.dtd">

<svg xmlns="http://www.w3.org/2000/svg"
     width="0.333333in" height="0.166667in"
     viewBox="0 0 100 50">
  <path id="Zaznaczenie #2"
        fill="none" stroke="black" stroke-width="1"
        d="M 30.00,42.00
           C 24.10,39.20 19.89,38.84 16.45,32.00
             12.55,24.23 17.31,15.12 25.00,12.01
             27.67,10.92 30.19,11.03 33.00,11.00
             30.33,9.45 29.12,9.18 26.00,9.04
             20.81,8.81 16.18,9.49 12.34,13.34
             5.81,19.86 6.49,33.64 14.09,39.15
             18.88,42.61 24.43,42.00 30.00,42.00 Z
           M 44.00,9.56
           C 27.25,15.43 29.64,41.13 48.00,41.96
             52.75,42.17 57.06,41.64 60.81,38.44
             67.88,32.43 67.88,18.57 60.81,12.56
             56.08,8.52 49.80,8.54 44.00,9.56 Z
           M 67.00,10.00
           C 72.49,12.20 76.04,10.23 81.61,17.04
             89.85,27.12 82.00,39.72 70.00,41.00
             71.75,41.69 72.09,41.84 74.04,41.95
             79.56,42.29 84.71,41.20 88.44,36.81
             94.69,29.47 93.00,15.31 83.99,10.69
             78.80,8.02 72.49,9.02 67.00,10.00 Z" />
</svg>
